inDegrees=yes
name=ik_S50_A03_T01
DataType=double
version=3
OpenSimVersion=4.3-2021-08-27-4bc7ad9
endheader
time	pelvis_tilt	pelvis_list	pelvis_rotation	pelvis_tx	pelvis_ty	pelvis_tz	hip_flexion_r	hip_adduction_r	hip_rotation_r	knee_angle_r	knee_angle_r_beta	ankle_angle_r	subtalar_angle_r	mtp_angle_r	hip_flexion_l	hip_adduction_l	hip_rotation_l	knee_angle_l	knee_angle_l_beta	ankle_angle_l	subtalar_angle_l	mtp_angle_l	lumbar_extension	lumbar_bending	lumbar_rotation	arm_flex_r	arm_add_r	arm_rot_r	elbow_flex_r	pro_sup_r	wrist_flex_r	wrist_dev_r	arm_flex_l	arm_add_l	arm_rot_l	elbow_flex_l	pro_sup_l	wrist_flex_l	wrist_dev_l
9.719999999999882	-3.009293604984775	4.900625747128754	100.3492182616025	0	0.9399999999999999	0	15.79636533265039	-3.037243796400609	-10.35808427449193	9.436746380090465	0.1647022950082349	0	0	0	-3.877705293403713	2.992265208854888	-1.535117202592335	7.918636481935663	0.1382062788783178	0	0	0	0	0	0	31.30593975590181	-31.30593975590181	4.344778938788208	75.66266780691601	85.65522130466368	0	0	31.30593975590181	-31.30593975590181	4.344778938788208	75.66266780691601	85.65522130454097	0	0
9.739999999999881	-3.146382060766307	4.830649335219592	101.1550439747119	0	0.9399999999999999	0	14.60616498547735	-2.652180172262615	-11.65089198241823	4.196315467099664	0.07323952135325291	0	0	0	-4.554839380380192	3.149650578641281	-0.9836855899236859	8.172049782039684	0.1426291753334775	0	0	0	0	0	0	31.31256187022377	-31.31256187022376	4.345405403441713	75.67167906100026	85.65459484004258	0	0	31.31256187022377	-31.31256187022376	4.345405403441713	75.67167906100026	85.65459483992004	0	0
9.759999999999881	-3.339272955514319	4.809113278662683	102.3724690304206	0	0.9399999999999999	0	13.09471137173048	-3.019900773833851	-14.30011612048894	1.483386165127413	0.02588997266000564	0	0	0	-5.34939824340747	3.308844907403614	0.000334359322794632	8.470383607189333	0.1478360828524079	0	0	0	0	0	0	31.31821429065761	-31.3182142906576	4.345943105747344	75.67941467025399	85.65405713776482	0	0	31.31821429065761	-31.3182142906576	4.345943105747344	75.67941467025399	85.6540571376424	0	0
9.77999999999988	-3.373780395655419	4.74876636186279	102.9915958410565	0	0.9399999999999999	0	12.55558320944368	-3.155329815831221	-15.17052031485246	-2.939709921762429	-0.05130761718829929	0	0	0	-6.07270367655758	3.281515241474893	0.4417729169217003	8.827465053129249	0.1540683297818416	0	0	0	0	0	0	31.32367705233264	-31.32367705233263	4.346456056909657	75.68679134725913	85.65354418662899	0	0	31.32367705233264	-31.32367705233263	4.346456056909657	75.68679134725913	85.65354418650666	0	0
9.79999999999988	-3.344969384154385	4.816153271669332	103.4212020337476	0	0.9399999999999999	0	13.02767896063175	-3.001610204432027	-13.87106147545426	-3.680503752518991	-0.06423690861346294	0	0	0	-6.878660181532036	3.320816248484543	0.9269200696051842	8.143335259572311	0.1421280123732839	0	0	0	0	0	0	31.32903937327511	-31.3290393732751	4.34696668637309	75.6941374931188	85.653033557192	0	0	31.32903937327511	-31.3290393732751	4.34696668637309	75.6941374931188	85.65303355706992	0	0
9.819999999999879	-3.224284717658523	4.981119842241105	103.5570161195135	0	0.9399999999999999	0	13.17367330040951	-3.002842960870831	-15.65431370743647	-2.601826361277631	-0.04541043656947816	0	0	0	-7.744063720344373	3.10952987222114	1.136207017590207	9.8567214093729	0.172032242045373	0	0	0	0	0	0	31.33312853009645	-31.33312853009644	4.347356579657065	75.69974687446584	85.65264366392826	0	0	31.33312853009645	-31.33312853009644	4.347356579657065	75.69974687446584	85.65264366380629	0	0
9.839999999999879	-3.093572841838962	5.086188960173297	103.5142169209897	0	0.9399999999999999	0	13.85602038297505	-2.050455727713454	-16.04330053530954	-1.125231357125459	-0.01963899202852341	0	0	0	-7.84492363361869	2.844397545333303	1.072521100358933	11.16075479721947	0.1947919182192318	0	0	0	0	0	0	31.33717876885332	-31.33717876885331	4.347740663590813	75.70527174362255	85.6522595800144	0	0	31.33717876885332	-31.33717876885331	4.347740663590813	75.70527174362255	85.65225957989254	0	0
9.859999999999879	-2.986714533109935	5.246630562076277	103.2701149884221	0	0.9399999999999999	0	13.91976175927446	-1.224594645518273	-17.12689390579154	-0.04416418655066653	-0.0007708104667741285	0	0	0	-8.620291131312378	2.682256746782924	0.8510204342990236	12.06757374985076	0.2106188946621344	0	0	0	0	0	0	31.34084360421902	-31.34084360421901	4.348089760647473	75.71029396905624	85.65191048297585	0	0	31.34084360421902	-31.34084360421901	4.348089760647473	75.71029396905624	85.65191048285408	0	0
9.879999999999878	-2.767483385648124	5.492892368727421	102.8186625607581	0	0.9399999999999999	0	13.7545935200883	-1.017457560300215	-16.54604335563342	0.7383574916215067	0.01288676928556174	0	0	0	-8.838766116940439	2.313224778305486	0.2957985369885065	13.68396994627322	0.2388303303064193	0	0	0	0	0	0	31.34435402926596	-31.34435402926595	4.34841925919125	75.71503224291939	85.65158098444911	0	0	31.34435402926596	-31.34435402926595	4.34841925919125	75.71503224291939	85.65158098432755	0	0
9.899999999999878	-2.389731746480325	5.707219560960155	102.4199249189538	0	0.9399999999999999	0	14.22604257996124	-0.6035059624105075	-13.11321105953115	4.060655757582886	0.07087181275988606	0	0	0	-9.934858384268436	1.783727525815086	-1.421840537505642	14.82542060575955	0.2587524025635163	0	0	0	0	0	0	31.39675805854491	-31.39675805854491	4.352739575413525	75.77691508813062	85.64726066844611	0	0	31.39675805854491	-31.39675805854491	4.352739575413525	75.77691508813062	85.64726066832533	0	0
9.919999999999877	-1.692218345776316	6.689290541793309	101.9032010472054	0	0.9399999999999999	0	12.9493044092082	-0.02548653887111219	-14.10741939891294	5.011930021337071	0.08747468075188154	0	0	0	-10.87932649932446	0.6130141085634206	-3.716709529092229	16.98803224273549	0.2964970960706908	0	0	0	0	0	0	31.51584239865993	-31.51584239865992	4.362236308256601	75.91278543051494	85.63776393608192	0	0	31.51584239865993	-31.51584239865992	4.362236308256601	75.91278543051494	85.63776393596295	0	0
9.939999999999877	-1.693477526346606	6.684671188712987	101.8965480134302	0	0.9399999999999999	0	12.94441034129188	-0.5547780588745765	-11.43767118352034	5.601051847209676	0.09775679630871921	0	0	0	-10.57089871393595	0.07380645946630811	-5.648182585781526	19.88485270808592	0.3470561510302102	0	0	0	0	0	0	31.55896019638806	-31.55896019638805	4.365790435581957	75.9636908456157	85.63420980893692	0	0	31.55896019638806	-31.55896019638805	4.365790435581957	75.9636908456157	85.63420980881862	0	0
